<?xml version="1.0" standalone="no"?><!DOCTYPE svg PUBLIC "-//W3C//DTD SVG 1.1//EN" "http://www.w3.org/Graphics/SVG/1.1/DTD/svg11.dtd"><svg class="icon" width="25px" height="25px" viewBox="0 0 1024 1024" version="1.1" xmlns="http://www.w3.org/2000/svg"><path d="M858.432127 252.007571 165.567873 252.007571c-9.138124 0-16.703427-7.490601-16.703427-16.703427s7.490601-16.703427 16.703427-16.703427l692.864254 0c9.28855 0 16.703427 7.490601 16.703427 16.703427S867.644953 252.007571 858.432127 252.007571L858.432127 252.007571z"  /><path d="M614.543468 245.564835c-9.887184-48.538483-53.03182-83.743286-102.543468-83.743286-49.511647 0-92.581582 35.204803-102.468766 83.743286l-32.733519-6.66684c12.958126-64.043618 69.885674-110.408599 135.202285-110.408599s122.168434 46.440705 135.202285 110.408599L614.543468 245.564835 614.543468 245.564835z"  /><path d="M737.087455 895.509581 286.912545 895.509581c-25.76685 0-48.013527-22.021549-49.66105-49.062416l-34.606169-578.710354c-0.599657-9.212826 6.441713-17.077957 15.654538-17.602913 9.28855-0.37453 17.152658 6.441713 17.677615 15.654538l34.606169 578.785056c0.599657 9.587356 8.089235 17.677615 16.328897 17.677615l450.174909 0c8.314363 0 15.804964-8.16496 16.403598-17.752316l34.530444-578.710354c0.599657-9.28855 8.688893-15.954367 17.752316-15.730263 9.212826 0.523933 16.179494 8.463766 15.654538 17.602913l-34.530444 578.785056C785.100982 874.011964 763.228835 895.509581 737.087455 895.509581L737.087455 895.509581z"  /><path d="M385.336182 772.891915c-8.763594 0-16.179494-6.890944-16.628726-15.804964l-22.246677-397.816424c-0.523933-9.212826 6.516414-17.077957 15.730263-17.602913 8.988722-0.599657 17.077957 6.516414 17.602913 15.730263l22.246677 397.816424c0.523933 9.212826-6.516414 17.077957-15.730263 17.602913C386.010541 772.891915 385.636011 772.891915 385.336182 772.891915L385.336182 772.891915z"  /><path d="M638.662795 772.891915c-0.299829 0-0.674359 0-0.974188 0-9.212826-0.523933-16.254196-8.389064-15.730263-17.602913l22.246677-397.816424c0.523933-9.212826 8.463766-16.403598 17.602913-15.730263 9.212826 0.523933 16.254196 8.389064 15.730263 17.602913l-22.246677 397.816424C654.767588 766.074649 647.426389 772.891915 638.662795 772.891915L638.662795 772.891915z"  /><path d="M512 772.891915c-9.212826 0-16.703427-7.490601-16.703427-16.703427L495.296573 358.37104c0-9.212826 7.490601-16.703427 16.703427-16.703427 9.28855 0 16.703427 7.490601 16.703427 16.703427l0 397.891126C528.703427 765.476015 521.287527 772.891915 512 772.891915L512 772.891915z"  /></svg>