<?xml version="1.0" standalone="no"?><!DOCTYPE svg PUBLIC "-//W3C//DTD SVG 1.1//EN" "http://www.w3.org/Graphics/SVG/1.1/DTD/svg11.dtd"><svg t="1532075792368" class="icon" style="" viewBox="0 0 1024 1024" version="1.1" xmlns="http://www.w3.org/2000/svg" p-id="2139" xmlns:xlink="http://www.w3.org/1999/xlink" width="16" height="16"><defs><style type="text/css"></style></defs><path d="M788.103 603.535c-22.673-4.217-65.147 34.284-65.147 34.284 121.434 76.696 121.127 169.835 121.127 169.835s27.622-13.812 42.108-37.525c14.483-23.712 19.432-51.702-15.767-100.715-35.262-49.075-59.585-61.541-82.321-65.88zM335.314 207.732c-22.948 2.476-52.313 51.794-52.313 51.794 138.575 37.86 165.558 126.994 165.558 126.994s23.497-30.312 30.432-57.202c6.907-26.86 2.293-46.14-45.742-82.747-48.004-36.608-74.955-41.375-97.935-38.839z" fill="#0c9965" p-id="2140"></path><path d="M511.138 67.813c-246.41 0-446.892 199.17-446.892 443.99 0 244.76 200.483 443.928 446.892 443.928 110.615 0 211.331-40.763 289.433-107.193 8.373-1.65 30.924-8.19 26.035-31.29-5.93-28.357-50.052-119.843-117.888-160.056 0 0-25.605-15.157-47.975 12.468 0 0-34.955 12.527-111.316-61.175-76.363-73.765-145.481-129.683-120.487-204.76 0 0 11.183-40.151-82.991-93.414-94.146-53.352-101.022-19.495-105.666-5.651-4.583 13.842-30.617 65.544-11.184 115.901 15.828 41.007 66.858 145.206 216.984 287.416 125.985 119.172 203.66 165.066 263.857 166.35-59.035 32.208-126.75 50.724-198.802 50.724-229.482 0-416.183-185.417-416.183-413.25 0-227.89 186.701-413.309 416.183-413.309 229.48 0 416.184 185.42 416.184 413.31 0 2.506-0.368 4.95-0.43 7.455h30.74c0.061-2.506 0.428-4.95 0.428-7.456 0-244.818-200.513-443.988-446.922-443.988z" fill="#0c9965" p-id="2141"></path></svg>